<?xml version="1.0" encoding="utf-8"?>
<!-- Generator: Adobe Illustrator 21.0.2, SVG Export Plug-In . SVG Version: 6.00 Build 0)  -->
<svg version="1.1" id="Layer_1" xmlns="http://www.w3.org/2000/svg" xmlns:xlink="http://www.w3.org/1999/xlink" x="0px" y="0px"
	 viewBox="0 0 274.8 218.9" style="enable-background:new 0 0 274.8 218.9;" xml:space="preserve">
<style type="text/css">
	.st0{fill:#FFFFFF;stroke:#DDDDDD;stroke-width:2;stroke-miterlimit:10;}
	.st1{fill:#EEEEEE;}
	.st2{fill:#FFFFFF;}
	.st3{fill:#DDDDDD;}
	.st4{fill:#F4F4F4;stroke:#DDDDDD;stroke-miterlimit:10;}
</style>
<g>
	<path class="st0" d="M199.1,97.7c1.1,45.1-35.2,81.9-80,81.9c-13,0-42.8-8.7-59.2-10.1c-13.4-1.1-18.3,3.6-20.8-1.2
		c-3.4-6.6,11.5-15.8,7.8-29.2c-3-10.8-7.8-29.9-7.8-39.5c0-44.8,36.9-81,81.9-80C163.5,20.7,198.1,55.3,199.1,97.7z"/>
	<g>
		<ellipse class="st1" cx="90.3" cy="96.2" rx="7.5" ry="2"/>
		<ellipse class="st1" cx="159.8" cy="96.2" rx="7.5" ry="2"/>
	</g>
	<path class="st1" d="M41.8,168.5c0,0,9.1-11.8,29.6-10.5c0,0,6.4-0.4,19.9,5.1c0,0,16.4,6.1,28.4,5.5c0,0,24.1,1.2,46.2-12.5
		c0,0,11.8-6.6,19.9-15.9c0,0-14.4,28-50.7,35.9c-1.2,0.2-7,1.2-8.9,1.3c-4.5,0.2-1.7,0.6-10.1,0.2c-6.5-0.2-17.3-2.8-27.4-4.9
		c0,0-11.8-2.6-21.2-4.1c-3.4-0.5-6.4-0.9-9.2-1c-5.2-0.2-9.7,0.5-14.2,1C43.2,168.6,42.3,168.7,41.8,168.5z"/>
	<path class="st2" d="M132.6,164.6c-0.7,29.8,23.3,54.2,53,54.2c8.6,0,28.3-5.8,39.2-6.7c8.9-0.7,12.1,2.4,13.7-0.8
		c2.2-4.4-7.6-10.4-5.1-19.4c2-7.1,5.1-19.8,5.1-26.2c0-29.7-24.4-53.7-54.2-53C156.2,113.6,133.3,136.5,132.6,164.6z"/>
	<path class="st0" d="M138.4,164.5c-0.6,26.6,20.7,48.3,47.1,48.3c7.7,0,25.2-5.1,34.9-5.9c7.9-0.7,10.8,2.1,12.2-0.7
		c2-3.9-6.8-9.3-4.6-17.2c1.8-6.3,4.6-17.6,4.6-23.3c0-26.4-21.7-47.8-48.3-47.1C159.4,119.1,139,139.5,138.4,164.5z"/>
	<ellipse class="st1" cx="203.9" cy="160.1" rx="4.4" ry="1.2"/>
	<ellipse class="st1" cx="161.9" cy="160.1" rx="4.4" ry="1.2"/>
	<path class="st1" d="M231,204.8c0,0-5.3-5.6-17.3-4.9c0,0-3.8-0.2-11.7,3c0,0-9.7,3.6-16.7,3.3c0,0-14.2,0.7-27.2-7.4
		c0,0-6.5-4.7-11.3-10.1c0,0,8.3,16.5,29.4,21.1c1.9,0.5,5,0.8,6.2,0.8c2.7,0.1,3.6,0.4,10.4-0.6c3.3-0.5,6.4-1.3,12.4-2.6
		c0,0,4.1-0.9,9.9-1.9c2-0.4,4.7-0.7,6.4-0.8c2.9-0.2,5.6,0.3,8.2,0.6C230.1,205.5,231.3,205.8,231,204.8z"/>
	<g>
		<path class="st3" d="M208.1,150.6c0.3-0.6,1.1-0.7,1.6-0.4c0.6,0.3,0.7,1,0.4,1.6c-0.1,0.1-2,3.3-6.2,3.3c-4.2,0-6.1-3.2-6.2-3.3
			c-0.3-0.6-0.1-1.3,0.4-1.6c0.2-0.1,0.4-0.2,0.6-0.2c0.4,0,0.8,0.2,1,0.6c0.1,0.1,1.3,2.1,4.2,2.1
			C206.7,152.8,208,150.7,208.1,150.6z"/>
		<path class="st3" d="M156.4,150.2c0.2-0.1,0.4-0.2,0.6-0.2c0.4,0,0.8,0.2,1,0.6c0,0.1,1.3,2.1,4.2,2.1c2.9,0,4.2-2.1,4.2-2.1
			c0.3-0.6,1-0.7,1.6-0.4c0.6,0.3,0.7,1.1,0.4,1.6c-0.1,0.1-2,3.3-6.2,3.3c-4.2,0-6.1-3.2-6.2-3.3
			C155.6,151.3,155.8,150.5,156.4,150.2z"/>
	</g>
	<g>
		<path class="st3" d="M164.5,84.3c0.4-0.6,1.2-0.8,1.8-0.5c0.6,0.4,0.8,1.2,0.5,1.8c-0.1,0.2-2.3,3.7-7.1,3.7c-4.8,0-7-3.6-7.1-3.7
			c-0.4-0.6-0.2-1.5,0.5-1.8c0.2-0.1,0.4-0.2,0.7-0.2c0.5,0,0.9,0.2,1.2,0.6c0.1,0.1,1.5,2.4,4.8,2.4
			C163,86.8,164.4,84.4,164.5,84.3z"/>
		<path class="st3" d="M83.7,83.9c0.2-0.1,0.4-0.2,0.7-0.2c0.5,0,0.9,0.2,1.2,0.7c0.1,0.1,1.5,2.4,4.8,2.4c3.3,0,4.8-2.4,4.8-2.4
			c0.4-0.6,1.2-0.9,1.8-0.5c0.6,0.4,0.9,1.2,0.5,1.8c-0.1,0.2-2.3,3.7-7.1,3.7c-4.8,0-7-3.6-7.1-3.7C82.9,85.1,83.1,84.3,83.7,83.9z
			"/>
	</g>
	<ellipse class="st4" cx="183.1" cy="170.3" rx="6.5" ry="7"/>
	<path id="path38" class="st1" d="M231.5,121.5H227c-1,0-1.7-0.6-1.7-1.7c0-1.1,0.8-1.7,1.7-1.7h8.7c0.3,0,1.3,0.2,1.3,1.2
		c0,0.5-0.1,0.7-0.4,1.1l-6.1,8.5h5.1c1,0,1.7,0.6,1.7,1.7c0,1.1-0.8,1.7-1.7,1.7h-8.9c-0.9,0-1.6-0.4-1.6-1.3c0-0.4,0.2-0.8,0.3-1
		L231.5,121.5z"/>
	<path id="path42" class="st1" d="M248.7,115.2h-5.2c-1.1,0-2-0.7-2-2c0-1.2,0.9-2,2-2h10.2c0.4,0,1.5,0.2,1.5,1.4
		c0,0.6-0.1,0.9-0.5,1.3l-7.1,9.9h5.9c1.1,0,2,0.7,2,2c0,1.2-0.9,2-2,2h-10.4c-1,0-1.8-0.5-1.8-1.5c0-0.5,0.2-1,0.4-1.2L248.7,115.2
		z"/>
	<path id="path46" class="st1" d="M266,122.7h-6.7c-1.4,0-2.6-0.9-2.6-2.5s1.2-2.5,2.6-2.5h13.1c0.5,0,1.9,0.2,1.9,1.8
		c0,0.8-0.2,1.1-0.6,1.7l-9.1,12.7h7.6c1.4,0,2.6,0.9,2.6,2.5s-1.2,2.5-2.6,2.5h-13.4c-1.3,0-2.4-0.6-2.4-2c0-0.6,0.3-1.2,0.5-1.6
		L266,122.7z"/>
	<path id="path38_1_" class="st1" d="M56.2,14.5H51c-1.1,0-2-0.7-2-2c0-1.2,0.9-2,2-2h10.1c0.4,0,1.5,0.2,1.5,1.4
		c0,0.6-0.1,0.9-0.5,1.3l-7,9.9H61c1.1,0,2,0.7,2,2c0,1.2-0.9,2-2,2H50.6c-1,0-1.8-0.5-1.8-1.5c0-0.5,0.2-1,0.4-1.2L56.2,14.5z"/>
	<path id="path42_1_" class="st1" d="M35.6,4.6h-6c-1.3,0-2.4-0.8-2.4-2.3c0-1.4,1-2.3,2.4-2.3h11.8c0.5,0,1.7,0.2,1.7,1.6
		c0,0.7-0.1,1-0.5,1.6l-8.2,11.5h6.9c1.3,0,2.4,0.8,2.4,2.3c0,1.4-1,2.3-2.4,2.3H29.1c-1.2,0-2.1-0.6-2.1-1.8c0-0.6,0.3-1.1,0.5-1.4
		L35.6,4.6z"/>
	<path id="path46_1_" class="st1" d="M11.1,12.5H3.3c-1.7,0-3-1.1-3-2.9s1.3-2.9,3-2.9h15.2c0.6,0,2.2,0.3,2.2,2.1
		c0,0.9-0.2,1.3-0.7,2L9.5,25.6h8.8c1.7,0,3,1.1,3,2.9s-1.4,2.9-3,2.9H2.7c-1.5,0-2.7-0.7-2.7-2.3c0-0.7,0.4-1.4,0.6-1.8L11.1,12.5z
		"/>
	<ellipse class="st4" cx="126.1" cy="117.3" rx="11.5" ry="12.5"/>
</g>
</svg>
